# xmcd CD database file
#
# Track frame offsets:
#	150
#	19542
#	40705
#	60097
#	92547
#
# Disc length: 4440 seconds
#
# Revision: 0
# Processed by: cddbd v1.5PL3 Copyright (c) Steve Scherf et al.
# Submitted via: CDex 1.50
#
DISCID=27115605
DTITLE=Ruppina - FAITH／Thousand Lights
DYEAR=2003
DGENRE=Anime
TTITLE0=FAITH
TTITLE1=Thousand Lights
TTITLE2=FAITH (Instrumental)
TTITLE3=Thousand Lights (Instrumental)
TTITLE4=data
EXTD=YEAR: 2003
EXTT0=
EXTT1=
EXTT2=
EXTT3=
EXTT4=
PLAYORDER=
